<?xml version="1.0" encoding="UTF-8" standalone="no"?><svg xmlns="http://www.w3.org/2000/svg" xmlns:xlink="http://www.w3.org/1999/xlink" width="100" height="100"><defs><linearGradient id="a"><stop offset="0" stop-color="gray"/><stop offset="1" stop-color="#ccc"/></linearGradient><linearGradient id="b" x1="79.6" x2="79.6" y1="203.3" y2="246.2" gradientTransform="matrix(1.17117 0 0 .99955 -9.3 -195)" gradientUnits="userSpaceOnUse" xlink:href="#a"/></defs><rect width="95.5" height="30.7" x="2.2" y="65" fill="#464646" stroke="#000" stroke-width="4.5" ry="1.8"/><circle cx="88.3" cy="74.5" r="2.2" fill="#0f0"/><rect width="86.7" height="52.6" x="6.6" y="4" fill="url(#b)" stroke="#000" stroke-linejoin="round" stroke-width="4.5" ry=".8"/><path fill="#fff" d="M46 13.9l-4.5 8.6-3.6 7h-4.7c-4.1 0-4.8.3-4.8 1.7S29 33 33.5 33c3.8 0 6 0 6.4-.4l3.7-7.2a30 30 0 0 1 3.3-5.6l1.8 9.6 2.6 13.4c1.1 5.8 1.5 7 2.3 7 .3 0 1-.6 1.7-2a127.4 127.4 0 0 0 3.2-6.4l4-8.3H67c5 0 5.6-.2 5.6-1.8s-.5-1.6-5.9-1.6c-3.8 0-5.6-.2-6 .3-.5.3-1.8 2.9-3.3 5.7a52.8 52.8 0 0 1-2.9 6.1l-.6-3-4.3-22.3c-.8-3.9-1-4.4-1.7-4.5a4.7 4.7 0 0 0-2 1.9z"/><circle cx="88.3" cy="81.2" r="2.2" fill="red"/><rect width="5.6" height="16.8" x="8.9" y="72.3" fill="#fff" ry="1"/><rect width="5.6" height="16.8" x="17.9" y="72.3" fill="#fff" ry="1"/><rect width="5.6" height="16.8" x="26.8" y="72.3" fill="#fff" ry="1"/><rect width="5.6" height="16.8" x="35.8" y="72.3" fill="#fff" ry="1"/><rect width="15.6" height="8.4" x="43.6" y="55.4" ry="0"/><path fill="#fff" d="M44.7 80.7a8.4 8.4 0 1 0 16.8 0 8.4 8.4 0 0 0-16.8 0zm.6 0c0-1.1.3-2.2.7-3.1l3.7 10a7.7 7.7 0 0 1-4.4-6.9zm7.8 7.7c-.8 0-1.5 0-2.2-.3l2.3-6.7 2.4 6.5v.1c-.8.3-1.6.4-2.5.4zm6.2-7.8A7.3 7.3 0 0 0 60 77a7.7 7.7 0 0 1-3 10.4zm-1.6-2.4c.2.5.6 1.2.6 2.1 0 .7-.2 1.5-.6 2.5l-.8 2.6-2.8-8.3h1c.3-.1.3-.8-.1-.7h-4.1c-.4 0-.5.6 0 .6h.7l1.2 3.4-1.6 5-2.9-8.3h1c.3-.1.3-.8-.1-.7h-2.6A7.7 7.7 0 0 1 58.3 75h-.1c-.8 0-1.3.7-1.3 1.4 0 .6.4 1.2.8 1.8z"/></svg>