<svg xmlns="http://www.w3.org/2000/svg" xmlns:xlink="http://www.w3.org/1999/xlink" width="90" height="90"><defs><linearGradient id="a"><stop offset="0" stop-color="gray"/><stop offset="1" stop-color="#ccc"/></linearGradient><linearGradient id="b" x1="79.6" x2="79.6" y1="203.3" y2="246.2" gradientTransform="matrix(1.0482 0 0 .8946 -8.1 -174.2)" gradientUnits="userSpaceOnUse" xlink:href="#a"/></defs><rect width="85.5" height="27.5" x="2.2" y="58.5" fill="#464646" stroke="#000" stroke-width="4" ry="1.6"/><circle cx="79.2" cy="67" r="2" fill="#0f0"/><rect width="77.6" height="47.1" x="6.1" y="3.9" fill="url(#b)" stroke="#000" stroke-linejoin="round" stroke-width="4" ry=".7"/><path fill="#fff" d="M41.3 12.7l-4 7.7-3.2 6.3h-4.2c-3.7 0-4.3.3-4.3 1.5 0 1.3.6 1.6 4.6 1.6 3.4 0 5.4 0 5.7-.3l3.3-6.5a26.8 26.8 0 0 1 3-5l1.6 8.6 2.3 12c1 5.2 1.4 6.3 2.1 6.3.2 0 .8-.6 1.5-1.8a114 114 0 0 0 2.9-5.8l3.5-7.4h4.1c4.4 0 5-.2 5-1.6 0-1.4-.5-1.4-5.3-1.4-3.4 0-5-.2-5.4.2-.4.3-1.6 2.6-2.9 5.1a47.3 47.3 0 0 1-2.6 5.5l-.6-2.6c-.2-1.3-1-6-3.8-20-.7-3.5-.9-4-1.5-4.1a4.24 4.24 0 0 0-1.8 1.7z"/><circle cx="79.2" cy="73" r="2" fill="red"/><rect width="5" height="15" x="8.2" y="65" fill="#fff" ry=".9"/><rect width="5" height="15" x="16.2" y="65" fill="#fff" ry=".9"/><rect width="5" height="15" x="24.2" y="65" fill="#fff" ry=".9"/><rect width="5" height="15" x="32.2" y="65" fill="#fff" ry=".9"/><rect width="14" height="7.49" x="39.2" y="49.91" ry="0"/><path fill="#fff" d="M40.2 72.53a7.5 7.5 0 1 0 15 0 7.5 7.5 0 0 0-15 0zm.58 0c0-1 .21-1.96.6-2.82l3.3 9.05a6.92 6.92 0 0 1-3.9-6.23zm6.92 6.92c-.68 0-1.34-.1-1.96-.28l2.08-6.04 2.13 5.83.05.1c-.72.25-1.5.39-2.3.39zm5.6-7.05a6.54 6.54 0 0 0 .47-3.2 6.89 6.89 0 0 1-2.59 9.31zm-1.5-2.13c.26.46.57 1.05.57 1.9 0 .6-.17 1.35-.52 2.25l-.7 2.3-2.5-7.44c.42-.02.8-.06.8-.06.37-.05.32-.6-.05-.57 0 0-1.12.09-1.84.09-.68 0-1.83-.1-1.83-.1-.37-.01-.41.56-.04.58 0 0 .35.04.73.06l1.07 2.96-1.51 4.54-2.52-7.5c.42-.02.8-.06.8-.06.36-.05.32-.6-.05-.57 0 0-1.12.09-1.85.09l-.44-.01a6.92 6.92 0 0 1 10.45-1.3l-.08-.01c-.69 0-1.17.6-1.17 1.23 0 .57.33 1.05.68 1.62z"/></svg>