<svg xmlns="http://www.w3.org/2000/svg" viewBox="0 0 30 30"><path fill="#fff" d="M11.92 3.38L8.88 9.25l-2.4 4.77H3.31c-2.86 0-3.31.21-3.31 1.12 0 1.01.48 1.2 3.47 1.2 2.58 0 4.13.05 4.32-.19.16-.16 1.36-2.69 2.56-4.9a20.32 20.32 0 0 1 2.13-3.92l1.25 6.53 1.74 9.07c.74 3.94 1.06 4.77 1.6 4.77.13 0 .56-.45 1.09-1.39.53-.93 1.28-2.45 2.19-4.32L23 16.34l3.2-.03c3.34-.02 3.79-.1 3.79-1.14 0-1.07-.4-1.07-4.05-1.07-2.56 0-3.68-.13-4.08.13-.27.22-1.2 2-2.14 3.87a35.82 35.82 0 0 1-2 4.19c-.1 0-.32-1.34-.42-1.98-.16-.98-.86-4.61-2.91-15.12-.5-2.66-.67-3.06-1.15-3.14-.42-.06-.72.24-1.3 1.33z"/></svg>